%
M48
M72
T01C0.0157
T02C0.0400
T03C0.0787
%
T01
X5069Y973
X7037Y973
X9006Y973
X10974Y973
X12943Y973
X14911Y973
X16880Y973
X18848Y973
X20817Y973
X22785Y973
X24754Y973
X26722Y973
X28691Y973
X30659Y973
X32628Y973
X34596Y973
X36565Y973
X38533Y973
X40502Y973
X42470Y973
X44124Y1760
X45698Y2548
X47194Y3256
X48061Y3808
X47194Y4359
X45620Y5146
X44045Y5934
X42470Y6721
X40502Y6721
X38533Y6721
X36565Y6721
X34596Y6721
X32628Y6721
X30659Y6721
X28691Y6721
X26722Y6721
X24754Y6721
X22785Y6721
X20817Y6721
X18848Y6721
X16880Y6721
X14911Y6721
X13021Y6721
X12083Y6548
X12673Y6430
X10845Y6600
X7794Y6556
X7175Y6550
X6531Y6528
X5935Y6684
X4439Y6684
X3350Y6425
X3100Y5975
X3887Y5739
X4917Y5603
X5587Y5662
X6059Y6076
X9409Y5806
X9864Y5808
X9171Y5200
X7750Y5225
X6871Y5225
X9169Y4737
X6871Y4359
X3756Y4231
X3756Y3781
X6150Y3450
X4396Y3352
X3845Y3195
X3100Y3256
X7450Y2775
X8400Y3000
X9169Y3320
X9532Y2160
X10400Y2161
X11266Y2161
X8850Y1775
X8400Y1775
X7950Y1775
X5276Y1771
X3100Y1288
X3815Y4894
X3100Y5225
T02
X14079Y5064
X15079Y5064
X16079Y5064
X16079Y6064
X15079Y6064
X14079Y6064
T03
X15736Y3851
M30
