G75*
%MOIN*%
%OFA0B0*%
%FSLAX24Y24*%
%IPPOS*%
%LPD*%
%AMOC8*
5,1,8,0,0,1.08239X$1,22.5*
%
%ADD10C,0.0827*%
%ADD11R,0.0316X0.0394*%
%ADD12R,0.0473X0.0434*%
%ADD13R,0.0276X0.0355*%
%ADD14R,0.0434X0.0473*%
%ADD15R,0.0552X0.0129*%
%ADD16R,0.1875X0.1875*%
%ADD17R,0.0129X0.0552*%
%ADD18R,0.0394X0.0316*%
%ADD19R,0.0788X0.0473*%
%ADD20R,0.0591X0.0512*%
%ADD21C,0.0540*%
%ADD22R,0.0276X0.0276*%
%ADD23R,0.0440X0.0240*%
%ADD24R,0.0200X0.0360*%
%ADD25C,0.0740*%
%ADD26OC8,0.0740*%
%ADD27C,0.0130*%
%ADD28R,0.0670X0.0946*%
%ADD29C,0.0355*%
D10*
X015736Y003851D03*
D11*
X010106Y003164D03*
X009594Y003164D03*
X004683Y003781D03*
X004172Y003781D03*
X004172Y004246D03*
X004683Y004246D03*
X009594Y005200D03*
X010106Y005200D03*
X009467Y006468D03*
X008955Y006468D03*
D12*
X012209Y002266D03*
X012878Y002266D03*
D13*
X012898Y001511D03*
X012268Y001511D03*
D14*
X010850Y001500D03*
X009950Y001500D03*
X009950Y002170D03*
X010850Y002170D03*
D15*
X008648Y003934D03*
X008648Y004091D03*
X008648Y004249D03*
X008648Y004406D03*
X008648Y004564D03*
X008648Y004721D03*
X008648Y004879D03*
X008648Y005036D03*
X008648Y005194D03*
X008648Y005351D03*
X008648Y005509D03*
X008648Y005666D03*
X006152Y005666D03*
X006152Y005509D03*
X006152Y005351D03*
X006152Y005194D03*
X006152Y005036D03*
X006152Y004879D03*
X006152Y004721D03*
X006152Y004564D03*
X006152Y004406D03*
X006152Y004249D03*
X006152Y004091D03*
X006152Y003934D03*
D16*
X007400Y004800D03*
D17*
X007321Y003552D03*
X007164Y003552D03*
X007006Y003552D03*
X006849Y003552D03*
X006691Y003552D03*
X006534Y003552D03*
X007479Y003552D03*
X007636Y003552D03*
X007794Y003552D03*
X007951Y003552D03*
X008109Y003552D03*
X008266Y003552D03*
X008266Y006048D03*
X008109Y006048D03*
X007951Y006048D03*
X007794Y006048D03*
X007636Y006048D03*
X007479Y006048D03*
X007321Y006048D03*
X007164Y006048D03*
X007006Y006048D03*
X006849Y006048D03*
X006691Y006048D03*
X006534Y006048D03*
D18*
X010875Y006012D03*
X010875Y005500D03*
X005248Y005219D03*
X005248Y004707D03*
X005836Y002792D03*
X006300Y002792D03*
X007950Y002656D03*
X008400Y002656D03*
X008850Y002656D03*
X006300Y002280D03*
X005836Y002280D03*
X003829Y002280D03*
X003829Y002792D03*
X007950Y002144D03*
X008400Y002144D03*
X008850Y002144D03*
D19*
X009900Y003708D03*
X009900Y004692D03*
D20*
X005269Y002886D03*
X004403Y002886D03*
X004403Y002256D03*
X005269Y002256D03*
D21*
X006834Y001459D03*
X013795Y001410D03*
X013815Y002259D03*
X011267Y002796D03*
D22*
X004801Y005226D03*
X004368Y005226D03*
D23*
X002903Y005596D03*
D24*
X003002Y006423D03*
D25*
X014079Y005064D03*
D26*
X015079Y005064D03*
X016079Y005064D03*
X016079Y006064D03*
X015079Y006064D03*
X014079Y006064D03*
D27*
X011029Y004600D02*
X010725Y004600D01*
X010725Y004904D01*
X011029Y004904D01*
X011029Y004600D01*
X011029Y004729D02*
X010725Y004729D01*
X010725Y004858D02*
X011029Y004858D01*
X011029Y003909D02*
X010725Y003909D01*
X010725Y004213D01*
X011029Y004213D01*
X011029Y003909D01*
X011029Y004038D02*
X010725Y004038D01*
X010725Y004167D02*
X011029Y004167D01*
D28*
X012100Y003160D03*
X012100Y005640D03*
D29*
X005069Y000973D03*
X007037Y000973D03*
X009006Y000973D03*
X010974Y000973D03*
X012943Y000973D03*
X014911Y000973D03*
X016880Y000973D03*
X018848Y000973D03*
X020817Y000973D03*
X022785Y000973D03*
X024754Y000973D03*
X026722Y000973D03*
X028691Y000973D03*
X030659Y000973D03*
X032628Y000973D03*
X034596Y000973D03*
X036565Y000973D03*
X038533Y000973D03*
X040502Y000973D03*
X042470Y000973D03*
X044124Y001760D03*
X045698Y002548D03*
X047194Y003256D03*
X048061Y003808D03*
X047194Y004359D03*
X045620Y005146D03*
X044045Y005934D03*
X042470Y006721D03*
X040502Y006721D03*
X038533Y006721D03*
X036565Y006721D03*
X034596Y006721D03*
X032628Y006721D03*
X030659Y006721D03*
X028691Y006721D03*
X026722Y006721D03*
X024754Y006721D03*
X022785Y006721D03*
X020817Y006721D03*
X018848Y006721D03*
X016880Y006721D03*
X014911Y006721D03*
X013021Y006721D03*
X012083Y006548D03*
X012673Y006430D03*
X010845Y006600D03*
X007794Y006556D03*
X007175Y006550D03*
X006531Y006528D03*
X005935Y006684D03*
X004439Y006684D03*
X003350Y006425D03*
X003100Y005975D03*
X003887Y005739D03*
X004917Y005603D03*
X005587Y005662D03*
X006059Y006076D03*
X009409Y005806D03*
X009864Y005808D03*
X009171Y005200D03*
X007750Y005225D03*
X006871Y005225D03*
X009169Y004737D03*
X006871Y004359D03*
X003756Y004231D03*
X003756Y003781D03*
X006150Y003450D03*
X004396Y003352D03*
X003845Y003195D03*
X003100Y003256D03*
X007450Y002775D03*
X008400Y003000D03*
X009169Y003320D03*
X009532Y002160D03*
X010400Y002161D03*
X011266Y002161D03*
X008850Y001775D03*
X008400Y001775D03*
X007950Y001775D03*
X005276Y001771D03*
X003100Y001288D03*
X003815Y004894D03*
X003100Y005225D03*
M02*
