G75*
%MOIN*%
%OFA0B0*%
%FSLAX24Y24*%
%IPPOS*%
%LPD*%
%AMOC8*
5,1,8,0,0,1.08239X$1,22.5*
%
%ADD10C,0.0827*%
%ADD11C,0.0740*%
%ADD12OC8,0.0740*%
%ADD13C,0.3190*%
%ADD14R,0.1290X0.1290*%
%ADD15C,0.0355*%
D10*
X015736Y003851D03*
D11*
X014079Y005064D03*
D12*
X015079Y005064D03*
X016079Y005064D03*
X016079Y006064D03*
X015079Y006064D03*
X014079Y006064D03*
D13*
X011130Y003851D03*
D14*
X014230Y003851D03*
X008030Y003851D03*
D15*
X005069Y000973D03*
X007037Y000973D03*
X009006Y000973D03*
X010974Y000973D03*
X012943Y000973D03*
X014911Y000973D03*
X016880Y000973D03*
X018848Y000973D03*
X020817Y000973D03*
X022785Y000973D03*
X024754Y000973D03*
X026722Y000973D03*
X028691Y000973D03*
X030659Y000973D03*
X032628Y000973D03*
X034596Y000973D03*
X036565Y000973D03*
X038533Y000973D03*
X040502Y000973D03*
X042470Y000973D03*
X044124Y001760D03*
X045698Y002548D03*
X047194Y003256D03*
X048061Y003808D03*
X047194Y004359D03*
X045620Y005146D03*
X044045Y005934D03*
X042470Y006721D03*
X040502Y006721D03*
X038533Y006721D03*
X036565Y006721D03*
X034596Y006721D03*
X032628Y006721D03*
X030659Y006721D03*
X028691Y006721D03*
X026722Y006721D03*
X024754Y006721D03*
X022785Y006721D03*
X020817Y006721D03*
X018848Y006721D03*
X016880Y006721D03*
X014911Y006721D03*
X013021Y006721D03*
X012083Y006548D03*
X012673Y006430D03*
X010845Y006600D03*
X007794Y006556D03*
X007175Y006550D03*
X006531Y006528D03*
X005935Y006684D03*
X004439Y006684D03*
X003350Y006425D03*
X003100Y005975D03*
X003887Y005739D03*
X004917Y005603D03*
X005587Y005662D03*
X006059Y006076D03*
X009409Y005806D03*
X009864Y005808D03*
X009171Y005200D03*
X007750Y005225D03*
X006871Y005225D03*
X009169Y004737D03*
X006871Y004359D03*
X003756Y004231D03*
X003756Y003781D03*
X006150Y003450D03*
X004396Y003352D03*
X003845Y003195D03*
X003100Y003256D03*
X007450Y002775D03*
X008400Y003000D03*
X009169Y003320D03*
X009532Y002160D03*
X010400Y002161D03*
X011266Y002161D03*
X008850Y001775D03*
X008400Y001775D03*
X007950Y001775D03*
X005276Y001771D03*
X003100Y001288D03*
X003815Y004894D03*
X003100Y005225D03*
M02*
